<svg width="38" height="37" viewBox="0 0 38 37" fill="none" xmlns="http://www.w3.org/2000/svg">
<g filter="url(#filter0_d_4_68)">
<g clip-path="url(#clip0_4_68)">
<path d="M9.38842 26.2767C8.03446 23.9131 8.95551 20.2064 11.7569 17.4336C14.9384 14.2854 19.3369 13.5349 21.5827 15.7573C21.585 15.7601 21.5878 15.7632 21.5912 15.7662C21.1418 17.0606 19.7102 19.8139 15.42 21.3027C11.4894 22.667 9.9735 24.8368 9.38842 26.2767ZM20.2604 19.3887C19.2344 20.4051 17.776 21.4024 15.7102 22.1199C11.5176 23.5748 10.3463 25.9572 10.0194 27.1108C10.0352 27.1265 10.048 27.1429 10.0629 27.1573C12.3084 29.3798 16.7075 28.6292 19.8882 25.4811C22.7187 22.6797 23.6292 18.9254 22.2142 16.5658C21.8736 17.3517 21.2812 18.3784 20.2604 19.3887ZM11.5846 9.14992C16.1138 9.54273 18.564 7.61709 19.5119 6.62123C19.5103 6.61728 19.5091 6.61282 19.5079 6.60923C18.387 3.66892 14.0663 2.55935 9.85742 4.13103C6.15073 5.51531 3.76806 8.51723 4.0179 11.2229C5.15056 10.1498 7.43511 8.7907 11.5846 9.14992ZM13.9169 14.7795C17.6624 13.3812 20.0541 10.3311 19.7471 7.60392C19.1096 8.18135 18.1423 8.87565 16.7917 9.38013C15.4339 9.8871 13.6897 10.2018 11.5089 10.0128C7.08339 9.62879 5.02376 11.3222 4.24526 12.2407C4.25317 12.2612 4.25871 12.2812 4.26588 12.3004C5.38702 15.2415 9.70784 16.3515 13.9169 14.7795ZM27.0248 8.64785C29.7422 5.03959 29.3734 1.96435 29.015 0.643003C29.0109 0.642564 29.0068 0.641027 29.003 0.640149C25.8859 0.0395161 22.6621 3.09559 21.8023 7.4654C21.0451 11.315 22.3749 14.8977 24.8322 16.1089C24.5046 14.5913 24.5365 11.9537 27.0248 8.64785ZM29.9836 0.961321C30.1453 1.80183 30.2341 2.98107 29.9582 4.38298C29.6811 5.79324 29.0348 7.42734 27.7271 9.16485C25.0722 12.6901 25.446 15.3136 25.8269 16.4517C25.8486 16.4562 25.869 16.4616 25.8891 16.466C29.0065 17.0667 32.2299 14.0111 33.0896 9.64086C33.8552 5.75197 32.4892 2.13493 29.9836 0.961321Z" fill="white"/>
</g>
</g>
<defs>
<filter id="filter0_d_4_68" x="0" y="0" width="37.302" height="37" filterUnits="userSpaceOnUse" color-interpolation-filters="sRGB">
<feFlood flood-opacity="0" result="BackgroundImageFix"/>
<feColorMatrix in="SourceAlpha" type="matrix" values="0 0 0 0 0 0 0 0 0 0 0 0 0 0 0 0 0 0 127 0" result="hardAlpha"/>
<feOffset dy="4"/>
<feGaussianBlur stdDeviation="2"/>
<feColorMatrix type="matrix" values="0 0 0 0 0 0 0 0 0 0 0 0 0 0 0 0 0 0 0.25 0"/>
<feBlend mode="normal" in2="BackgroundImageFix" result="effect1_dropShadow_4_68"/>
<feBlend mode="normal" in="SourceGraphic" in2="effect1_dropShadow_4_68" result="shape"/>
</filter>
<clipPath id="clip0_4_68">
<rect width="29.302" height="29" fill="white" transform="translate(4)"/>
</clipPath>
</defs>
</svg>
